<svg version="1.1" id="Layer_1" xmlns="http://www.w3.org/2000/svg" xmlns:xlink="http://www.w3.org/1999/xlink" x="0px" y="0px"
	 width="100%" viewBox="0 0 512 512" enable-background="new 0 0 512 512" xml:space="preserve">
<path fill="#FFFFFF" opacity="1.000000" stroke="none" 
	d="
M513.000000,86.000000 
	C513.000000,228.211166 513.000000,370.422333 513.000000,513.000000 
	C485.646851,513.000000 458.292084,513.000000 430.643616,512.632263 
	C445.402283,510.817627 458.108093,504.157379 468.605164,493.696777 
	C477.617218,484.716003 482.986938,473.429718 485.903259,460.565460 
	C486.260529,448.085571 486.546967,436.043060 486.904266,423.536621 
	C486.927856,405.715668 486.880585,388.358582 486.903961,370.537415 
	C486.983002,358.940582 487.003357,347.807831 486.995758,336.675079 
	C486.990326,328.742615 480.811340,322.022797 473.543518,322.001007 
	C466.531830,321.980011 460.109619,328.487915 460.042145,336.118866 
	C459.939423,347.745148 460.111359,359.373840 460.096863,371.465424 
	C460.073578,389.286377 460.120056,406.643463 460.096802,424.464600 
	C459.407196,436.953308 458.787323,448.977997 458.005127,461.332153 
	C452.105377,476.076965 437.964142,486.138519 421.809723,486.110504 
	C303.876221,485.906006 185.942062,485.921936 68.008560,486.122864 
	C56.336674,486.142731 46.453232,483.036652 37.972328,474.646545 
	C30.004982,467.250580 27.435379,457.880646 27.088488,447.894043 
	C26.661730,435.608246 26.888840,423.299744 26.904352,410.537140 
	C26.928080,377.382507 26.880789,344.691803 26.904335,311.537170 
	C26.927908,274.049377 26.880644,237.025528 26.903751,199.537537 
	C26.927162,174.049179 26.880199,149.024933 26.903162,123.543030 
	C26.663187,114.122406 27.418518,105.228180 32.335522,97.537384 
	C35.266521,92.952950 39.473595,89.184364 43.472015,85.018021 
	C52.164730,80.139038 61.079491,78.755920 70.726936,78.857666 
	C105.207527,79.221275 139.694290,78.999069 174.178726,79.000999 
	C179.383102,79.001289 184.300995,77.943336 187.942368,73.977287 
	C191.617111,69.974892 192.088043,65.185234 190.053314,60.225300 
	C187.641159,54.345333 182.828629,52.029533 176.812561,52.022087 
	C140.828873,51.977535 104.845009,51.964802 68.861435,52.043716 
	C64.266777,52.053795 59.636868,52.397507 55.085800,53.033779 
	C35.323139,55.796741 20.636538,66.350586 9.635868,83.066818 
	C6.547617,90.493248 3.773809,97.746620 1.000000,105.000000 
	C1.000000,70.355667 1.000000,35.711334 1.000000,1.051405 
	C171.666672,1.051405 342.333344,1.051405 513.000000,1.051405 
	C513.000000,21.756102 513.000000,42.409393 512.646484,63.373840 
	C510.806458,59.123726 509.319977,54.562454 507.797363,49.655998 
	C502.107117,38.897717 493.800171,30.764355 484.973389,22.649727 
	C471.546844,8.281621 455.531036,1.643920 435.930420,2.859687 
	C419.477142,3.880232 406.987488,11.789510 395.583038,23.090248 
	C385.480194,33.136238 375.680481,43.048920 365.578339,53.094261 
	C354.810364,63.805637 344.344818,74.384346 333.577026,85.095490 
	C327.145111,91.471123 321.015411,97.714317 314.582581,104.090775 
	C307.482697,111.134178 300.685944,118.044312 293.586060,125.087517 
	C287.820465,130.796616 282.358032,136.372650 276.591736,142.082397 
	C263.485046,155.131546 250.682175,168.047012 237.577057,181.095032 
	C229.478394,189.137573 221.681961,197.047546 213.582367,205.090714 
	C204.835571,213.781342 196.391922,222.338776 187.641785,231.034821 
	C185.141495,233.364563 182.860779,235.476501 180.774582,237.765686 
	C177.758133,241.075607 174.882584,244.513947 171.619598,248.055115 
	C168.823090,256.127930 166.353912,264.043121 163.559479,272.158020 
	C161.211731,279.905121 159.189255,287.452545 157.086151,295.389465 
	C154.635117,304.502686 152.264740,313.226410 149.564117,322.156311 
	C149.055405,323.483582 148.975632,324.631042 148.683365,325.721619 
	C145.530319,337.486176 142.343857,349.241760 139.096313,361.371155 
	C137.442841,371.358246 143.931900,378.401001 153.486664,376.932922 
	C159.073593,376.074493 164.570663,374.499207 170.029434,372.966125 
	C181.712189,369.685089 193.343796,366.221985 205.396606,362.902313 
	C219.892410,359.134216 234.064529,355.552704 248.053116,351.358978 
	C255.743500,349.053436 263.891724,346.871796 270.433624,342.526672 
	C277.207947,338.027130 282.289276,330.978699 288.414551,324.912720 
	C298.162537,315.221527 307.607025,305.662720 317.358276,295.965698 
	C324.816711,288.564178 331.968384,281.300842 339.422607,273.905396 
	C345.833984,267.550201 351.942749,261.327087 358.358154,254.965561 
	C363.481323,249.899063 368.297852,244.970947 373.417664,239.909882 
	C384.182220,229.201721 394.643463,218.626495 405.408630,207.917740 
	C418.845276,194.537933 431.977997,181.291641 445.413971,167.912537 
	C453.162079,160.221130 460.606903,152.662567 468.358246,144.965393 
	C475.126465,138.253143 481.588135,131.679489 488.356689,124.966774 
	C494.460052,117.585953 500.256531,110.344200 506.368835,102.927917 
	C508.789764,97.168930 510.894867,91.584465 513.000000,86.000000 
z"/>
<path fill="#00B2E8" opacity="1.000000" stroke="none" 
	d="
M485.832458,461.002808 
	C482.986938,473.429718 477.617218,484.716003 468.605164,493.696777 
	C458.108093,504.157379 445.402283,510.817627 430.174957,512.632263 
	C306.312439,513.000000 182.624878,513.000000 58.287483,512.628296 
	C48.446415,511.960754 40.231857,508.614258 32.434940,504.068298 
	C20.999228,497.400726 12.293949,488.208405 7.353952,476.024475 
	C17.924494,475.661255 28.018829,475.308899 38.113167,474.956573 
	C46.453232,483.036652 56.336674,486.142731 68.008560,486.122864 
	C185.942062,485.921936 303.876221,485.906006 421.809723,486.110504 
	C437.964142,486.138519 452.105377,476.076965 458.462646,461.331360 
	C467.999176,461.001678 476.915802,461.002228 485.832458,461.002808 
z"/>
<path fill="#00D0DC" opacity="1.000000" stroke="none" 
	d="
M26.833378,200.001663 
	C26.880644,237.025528 26.927908,274.049377 26.446793,311.536682 
	C17.612274,312.000092 9.306137,312.000031 1.000000,312.000000 
	C1.000000,274.979095 1.000000,237.958206 1.468652,200.468658 
	C10.235994,200.000565 18.534687,200.001114 26.833378,200.001663 
z"/>
<path fill="#00C2E2" opacity="1.000000" stroke="none" 
	d="
M1.000000,312.468658 
	C9.306137,312.000031 17.612274,312.000092 26.375954,312.000610 
	C26.880789,344.691803 26.928080,377.382507 26.446804,410.536682 
	C17.612158,411.000092 9.306079,411.000031 1.000000,411.000000 
	C1.000000,378.312439 1.000000,345.624878 1.000000,312.468658 
z"/>
<path fill="#00DDD8" opacity="1.000000" stroke="none" 
	d="
M26.903751,199.537537 
	C18.534687,200.001114 10.235994,200.000565 1.468652,200.000000 
	C1.000000,174.979111 1.000000,149.958206 1.468652,124.468658 
	C10.235947,124.000237 18.534592,124.000465 26.833237,124.000702 
	C26.880199,149.024933 26.927162,174.049179 26.903751,199.537537 
z"/>
<path fill="#00B8E6" opacity="1.000000" stroke="none" 
	d="
M1.000000,411.468658 
	C9.306079,411.000031 17.612158,411.000092 26.375784,411.000580 
	C26.888840,423.299744 26.661730,435.608246 27.088488,447.894043 
	C27.435379,457.880646 30.004982,467.250580 37.972328,474.646545 
	C28.018829,475.308899 17.924494,475.661255 7.036104,475.843628 
	C4.494702,470.449127 2.747351,465.224579 1.000000,460.000000 
	C1.000000,443.979095 1.000000,427.958221 1.000000,411.468658 
z"/>
<path fill="#00E4D5" opacity="1.000000" stroke="none" 
	d="
M26.903160,123.543030 
	C18.534592,124.000465 10.235947,124.000237 1.468652,124.000000 
	C1.000000,117.978844 1.000000,111.957695 1.000000,105.468269 
	C3.773809,97.746620 6.547617,90.493248 9.920170,83.382156 
	C18.292465,83.682968 26.068861,83.761841 33.838165,84.039284 
	C36.935848,84.149910 40.017860,84.699333 43.107002,85.049011 
	C39.473595,89.184364 35.266521,92.952950 32.335522,97.537384 
	C27.418518,105.228180 26.663187,114.122406 26.903160,123.543030 
z"/>
<path fill="#FFFFFF" opacity="1.000000" stroke="none" 
	d="
M1.000000,460.468658 
	C2.747351,465.224579 4.494702,470.449127 6.559900,475.854553 
	C12.293949,488.208405 20.999228,497.400726 32.434940,504.068298 
	C40.231857,508.614258 48.446415,511.960754 57.818825,512.628296 
	C39.075882,513.000000 20.151762,513.000000 1.000000,513.000000 
	C1.000000,495.646423 1.000000,478.291870 1.000000,460.468658 
z"/>
<path fill="#00E7D4" opacity="1.000000" stroke="none" 
	d="
M507.833496,50.001183 
	C509.319977,54.562454 510.806458,59.123726 512.646484,63.842499 
	C513.000000,68.356903 513.000000,72.713799 512.531372,77.535355 
	C503.764069,78.000099 495.465393,78.000198 487.097168,77.558975 
	C487.562653,67.218040 483.393188,59.212814 477.241577,51.800766 
	C479.462524,51.321930 481.400330,51.096775 483.344269,51.011177 
	C491.506348,50.651768 499.670258,50.334118 507.833496,50.001183 
z"/>
<path fill="#00E4D5" opacity="1.000000" stroke="none" 
	d="
M487.166718,78.000298 
	C495.465393,78.000198 503.764069,78.000099 512.531372,78.000000 
	C513.000000,80.370560 513.000000,82.741112 513.000000,85.555832 
	C510.894867,91.584465 508.789764,97.168930 506.083252,102.613640 
	C497.015320,102.315926 488.547058,102.213501 480.083618,101.953690 
	C478.366913,101.900986 476.668427,101.254333 475.097656,100.575310 
	C481.481750,94.062767 485.442444,86.630730 487.166718,78.000298 
z"/>
<path fill="#00E7D4" opacity="1.000000" stroke="none" 
	d="
M43.472015,85.018013 
	C40.017860,84.699333 36.935848,84.149910 33.838165,84.039284 
	C26.068861,83.761841 18.292465,83.682968 10.234612,83.209106 
	C20.636538,66.350586 35.323139,55.796741 55.085800,53.033779 
	C59.636868,52.397507 64.266777,52.053795 68.861435,52.043716 
	C104.845009,51.964802 140.828873,51.977535 176.812561,52.022087 
	C182.828629,52.029533 187.641159,54.345333 190.053314,60.225300 
	C192.088043,65.185234 191.617111,69.974892 187.942368,73.977287 
	C184.300995,77.943336 179.383102,79.001289 174.178726,79.000999 
	C139.694290,78.999069 105.207527,79.221275 70.726936,78.857666 
	C61.079491,78.755920 52.164730,80.139038 43.472015,85.018013 
z"/>
<path fill="#00C5E1" opacity="1.000000" stroke="none" 
	d="
M139.166519,360.999817 
	C142.343857,349.241760 145.530319,337.486176 148.683365,325.721619 
	C148.975632,324.631042 149.055405,323.483582 149.955017,322.325562 
	C159.395172,322.525848 168.114136,322.763153 176.892792,323.388000 
	C174.968246,330.688660 172.984039,337.601746 170.830475,345.104919 
	C181.644165,342.135956 191.741898,339.355103 201.844574,336.592316 
	C211.384262,333.983490 220.955627,331.483185 230.437210,328.678741 
	C231.581299,328.340393 235.825714,328.692352 233.273499,324.873718 
	C234.787094,324.473846 235.906845,324.035278 237.027863,324.032043 
	C252.626404,323.986877 268.225250,323.974182 283.823578,324.046661 
	C285.254272,324.053314 286.682007,324.697174 288.111115,325.045135 
	C282.289276,330.978699 277.207947,338.027130 270.433624,342.526672 
	C263.891724,346.871796 255.743500,349.053436 248.053116,351.358978 
	C234.064529,355.552704 219.892410,359.134216 205.290436,362.519409 
	C203.099945,361.711761 201.417007,361.052246 199.731720,361.046265 
	C179.543518,360.974579 159.354980,360.999878 139.166519,360.999817 
z"/>
<path fill="#00EBD2" opacity="1.000000" stroke="none" 
	d="
M507.797363,49.655998 
	C499.670258,50.334118 491.506348,50.651768 483.344269,51.011177 
	C481.400330,51.096775 479.462524,51.321930 476.934601,51.659992 
	C471.770538,47.265285 467.321747,42.555923 462.588898,38.151886 
	C454.168213,30.316217 444.348022,26.913548 432.954315,30.088125 
	C421.798492,33.196438 414.666840,41.868572 406.986664,49.674225 
	C406.460541,50.208897 407.049377,51.840584 406.696899,53.020027 
	C392.809631,53.039173 379.345215,53.000381 365.880768,52.961594 
	C375.680481,43.048920 385.480194,33.136238 396.005859,23.150461 
	C399.009827,23.384909 401.287048,23.953791 403.565796,23.959816 
	C427.975098,24.024395 452.384735,24.033281 476.793915,23.954142 
	C479.568268,23.945147 482.340607,23.304657 485.113861,22.956989 
	C493.800171,30.764355 502.107117,38.897717 507.797363,49.655998 
z"/>
<path fill="#00E7D4" opacity="1.000000" stroke="none" 
	d="
M365.578339,53.094257 
	C379.345215,53.000381 392.809631,53.039173 406.999176,53.152519 
	C417.834076,63.450722 427.943848,73.674370 437.767822,84.212143 
	C428.378143,84.684189 419.272461,84.778664 410.171631,85.042252 
	C407.738007,85.112740 405.319366,85.699852 402.590088,85.916183 
	C397.113342,80.491364 391.940369,75.200142 385.778625,68.897568 
	C380.342072,74.848289 375.230347,80.443459 369.695923,85.980331 
	C367.181183,85.614693 365.091797,85.064468 362.996674,85.041527 
	C353.291748,84.935249 343.585236,84.975372 333.879272,84.963058 
	C344.344818,74.384346 354.810364,63.805637 365.578339,53.094257 
z"/>
<path fill="#00C9DF" opacity="1.000000" stroke="none" 
	d="
M288.414551,324.912720 
	C286.682007,324.697174 285.254272,324.053314 283.823578,324.046661 
	C268.225250,323.974182 252.626404,323.986877 237.027863,324.032043 
	C235.906845,324.035278 234.787094,324.473846 232.970856,324.741974 
	C223.143402,315.528473 214.011841,306.282959 205.273529,296.873718 
	C207.452118,296.473328 209.235718,296.048950 211.023117,296.032288 
	C218.993103,295.957886 226.965103,296.063690 234.934143,295.949188 
	C236.640411,295.924652 238.337418,295.254456 240.345764,295.022217 
	C247.194305,301.783386 253.735764,308.404022 261.266602,316.026001 
	C268.282532,308.516693 275.082153,301.238922 282.274750,294.125488 
	C284.453094,294.526550 286.236694,294.950989 288.024078,294.967651 
	C295.994324,295.042084 303.966553,294.937042 311.935913,295.050171 
	C313.645782,295.074432 315.346558,295.735962 317.051514,296.103943 
	C307.607025,305.662720 298.162537,315.221527 288.414551,324.912720 
z"/>
<path fill="#00E1D6" opacity="1.000000" stroke="none" 
	d="
M474.961548,100.881500 
	C476.668427,101.254333 478.366913,101.900986 480.083618,101.953690 
	C488.547058,102.213501 497.015320,102.315926 505.767456,102.788170 
	C500.256531,110.344200 494.460052,117.585953 488.072327,124.651512 
	C472.850189,124.343895 458.219330,124.201210 443.588104,124.125374 
	C443.047577,124.122581 442.503632,124.772469 441.654236,124.977577 
	C433.527924,116.906479 425.708618,108.975983 418.281189,100.878090 
	C420.457886,100.473801 422.240967,100.049042 424.027863,100.032349 
	C431.996979,99.957878 439.968140,100.063240 447.936310,99.949631 
	C449.644531,99.925270 451.343597,99.260574 453.353638,99.030281 
	C457.298828,102.952843 460.937286,106.735985 464.647430,110.593658 
	C468.500397,106.965553 471.730988,103.923531 474.961548,100.881500 
z"/>
<path fill="#00CCDE" opacity="1.000000" stroke="none" 
	d="
M240.038681,294.881683 
	C238.337418,295.254456 236.640411,295.924652 234.934143,295.949188 
	C226.965103,296.063690 218.993103,295.957886 211.023117,296.032288 
	C209.235718,296.048950 207.452118,296.473328 204.970947,296.741821 
	C199.145706,291.502747 194.016312,286.231781 188.799179,280.870667 
	C187.089127,286.414459 185.605148,291.225342 183.645081,296.025055 
	C174.501587,295.675903 165.834183,295.337921 157.166794,294.999939 
	C159.189255,287.452545 161.211731,279.905121 164.035767,272.170624 
	C182.264755,271.976410 199.692215,271.969330 217.422058,272.094482 
	C225.162537,279.778412 232.600616,287.330048 240.038681,294.881683 
z"/>
<path fill="#00D7DA" opacity="1.000000" stroke="none" 
	d="
M445.110718,168.045349 
	C431.977997,181.291641 418.845276,194.537933 405.017883,207.747955 
	C402.538910,207.474472 400.756348,207.049088 398.969940,207.032379 
	C391.001801,206.957825 383.031647,207.063812 375.064453,206.949158 
	C373.359039,206.924606 371.662903,206.253326 370.094666,205.577576 
	C383.472015,192.143661 396.717194,179.012146 410.242371,166.198792 
	C419.293304,166.677963 428.066467,166.769043 436.833984,167.041000 
	C439.600616,167.126816 442.352234,167.696899 445.110718,168.045349 
z"/>
<path fill="#00DDD8" opacity="1.000000" stroke="none" 
	d="
M237.879303,180.962463 
	C250.682175,168.047012 263.485046,155.131546 276.982452,142.252167 
	C279.461304,142.525497 281.243866,142.950882 283.030243,142.967621 
	C290.998291,143.042191 298.968384,142.936234 306.935486,143.050842 
	C308.640991,143.075378 310.337250,143.746353 311.905334,144.421844 
	C299.221802,157.162262 286.670624,169.600357 273.696716,181.980164 
	C271.181854,181.614456 269.092438,181.064056 266.997253,181.041092 
	C257.292145,180.934738 247.585434,180.974823 237.879303,180.962463 
z"/>
<path fill="#00BEE3" opacity="1.000000" stroke="none" 
	d="
M460.166565,424.000519 
	C460.120056,406.643463 460.073578,389.286377 460.554382,371.464874 
	C469.665588,371.000763 478.249481,371.001129 486.833344,371.001495 
	C486.880585,388.358582 486.927856,405.715668 486.446716,423.536377 
	C477.334381,424.000183 468.750488,424.000366 460.166565,424.000519 
z"/>
<path fill="#00EDD2" opacity="1.000000" stroke="none" 
	d="
M484.973389,22.649727 
	C482.340607,23.304657 479.568268,23.945147 476.793915,23.954142 
	C452.384735,24.033281 427.975098,24.024395 403.565796,23.959816 
	C401.287048,23.953791 399.009827,23.384909 396.309021,23.017151 
	C406.987488,11.789510 419.477142,3.880232 435.930420,2.859687 
	C455.531036,1.643920 471.546844,8.281621 484.973389,22.649727 
z"/>
<path fill="#00C5E1" opacity="1.000000" stroke="none" 
	d="
M486.903961,370.537415 
	C478.249481,371.001129 469.665588,371.000763 460.624207,371.000977 
	C460.111359,359.373840 459.939423,347.745148 460.042145,336.118866 
	C460.109619,328.487915 466.531830,321.980011 473.543518,322.001007 
	C480.811340,322.022797 486.990326,328.742615 486.995758,336.675079 
	C487.003357,347.807831 486.983002,358.940582 486.903961,370.537415 
z"/>
<path fill="#00D5DB" opacity="1.000000" stroke="none" 
	d="
M369.962494,205.880005 
	C371.662903,206.253326 373.359039,206.924606 375.064453,206.949158 
	C383.031647,207.063812 391.001801,206.957825 398.969940,207.032379 
	C400.756348,207.049088 402.538910,207.474472 404.713959,207.881470 
	C394.643463,218.626495 384.182220,229.201721 372.994812,239.849716 
	C370.177124,239.614990 368.088318,239.064621 365.993683,239.041534 
	C356.290497,238.934509 346.585663,238.973877 337.021851,238.653717 
	C348.095673,227.524414 359.029083,216.702209 369.962494,205.880005 
z"/>
<path fill="#00D5DB" opacity="1.000000" stroke="none" 
	d="
M187.948273,230.896210 
	C196.391922,222.338776 204.835571,213.781342 214.058640,205.103622 
	C223.274597,204.988892 231.717178,204.814117 240.144409,205.097015 
	C243.128143,205.197189 246.074432,206.413147 248.905426,207.422043 
	C240.221512,216.162445 231.669968,224.600525 222.725418,232.874420 
	C220.547058,232.473495 218.763443,232.049011 216.976028,232.032318 
	C209.005722,231.957886 201.033432,232.062988 193.064041,231.949875 
	C191.354141,231.925598 189.653275,231.264130 187.948273,230.896210 
z"/>
<path fill="#00B8E6" opacity="1.000000" stroke="none" 
	d="
M460.096802,424.464600 
	C468.750488,424.000366 477.334381,424.000183 486.375854,424.000244 
	C486.546967,436.043060 486.260529,448.085571 485.903259,460.565460 
	C476.915802,461.002228 467.999176,461.001678 458.625000,461.001892 
	C458.787323,448.977997 459.407196,436.953308 460.096802,424.464600 
z"/>
<path fill="#00CFDD" opacity="1.000000" stroke="none" 
	d="
M217.119659,271.962219 
	C199.692215,271.969330 182.264755,271.976410 164.361023,271.970886 
	C166.353912,264.043121 168.823090,256.127930 171.905182,248.369400 
	C181.984573,248.684036 191.452454,248.791183 200.916321,249.046570 
	C202.631851,249.092865 204.330978,249.746445 205.907257,250.420013 
	C204.002701,252.093231 202.228592,253.466110 199.366562,255.680878 
	C205.989960,261.755188 211.554810,266.858704 217.119659,271.962219 
z"/>
<path fill="#00D7DA" opacity="1.000000" stroke="none" 
	d="
M249.037811,207.119720 
	C246.074432,206.413147 243.128143,205.197189 240.144409,205.097015 
	C231.717178,204.814117 223.274597,204.988892 214.361786,204.970428 
	C221.681961,197.047546 229.478394,189.137573 237.577057,181.095032 
	C247.585434,180.974823 257.292145,180.934738 266.997253,181.041092 
	C269.092438,181.064056 271.181854,181.614456 273.555725,182.287109 
	C265.570953,190.808121 257.304382,198.963913 249.037811,207.119720 
z"/>
<path fill="#00DDD8" opacity="1.000000" stroke="none" 
	d="
M445.413971,167.912537 
	C442.352234,167.696899 439.600616,167.126816 436.833984,167.041000 
	C428.066467,166.769043 419.293304,166.677963 410.374512,165.896332 
	C417.778412,157.837494 425.330078,150.399277 433.274750,143.125336 
	C435.453064,143.526428 437.236694,143.950974 439.024078,143.967682 
	C446.994385,144.042114 454.966644,143.937012 462.936066,144.050171 
	C464.645935,144.074448 466.346741,144.736008 468.051727,145.104004 
	C460.606903,152.662567 453.162079,160.221130 445.413971,167.912537 
z"/>
<path fill="#00CCDE" opacity="1.000000" stroke="none" 
	d="
M317.358276,295.965729 
	C315.346558,295.735962 313.645782,295.074432 311.935913,295.050171 
	C303.966553,294.937042 295.994324,295.042084 288.024078,294.967651 
	C286.236694,294.950989 284.453094,294.526550 282.414978,293.818298 
	C289.068756,286.551483 295.975250,279.756195 303.357697,272.972961 
	C315.595764,273.335815 327.357880,273.686676 339.120026,274.037506 
	C331.968384,281.300842 324.816711,288.564178 317.358276,295.965729 
z"/>
<path fill="#00E1D6" opacity="1.000000" stroke="none" 
	d="
M293.889191,124.954453 
	C300.685944,118.044312 307.482697,111.134178 315.013245,104.112091 
	C318.824646,104.333427 321.898346,104.904427 324.980530,104.954758 
	C333.691315,105.097015 342.405609,105.025795 350.977722,105.345657 
	C343.570587,112.808266 336.304199,119.963905 328.757782,126.801392 
	C319.706726,126.322159 310.933502,126.231026 302.165894,125.958992 
	C299.399261,125.873146 296.647675,125.302963 293.889191,124.954453 
z"/>
<path fill="#00DFD7" opacity="1.000000" stroke="none" 
	d="
M468.358246,144.965393 
	C466.346741,144.736008 464.645935,144.074448 462.936066,144.050171 
	C454.966644,143.937012 446.994385,144.042114 439.024078,143.967682 
	C437.236694,143.950974 435.453064,143.526428 433.415375,142.818359 
	C437.426117,138.166763 441.689178,133.986465 445.985992,129.773071 
	C444.522461,128.080383 443.241882,126.599281 441.961273,125.118179 
	C442.503632,124.772469 443.047577,124.122581 443.588104,124.125374 
	C458.219330,124.201210 472.850189,124.343895 487.765472,124.790588 
	C481.588135,131.679489 475.126465,138.253143 468.358246,144.965393 
z"/>
<path fill="#00E4D5" opacity="1.000000" stroke="none" 
	d="
M351.118500,105.038681 
	C342.405609,105.025795 333.691315,105.097015 324.980530,104.954758 
	C321.898346,104.904427 318.824646,104.333427 315.316406,103.978821 
	C321.015411,97.714317 327.145111,91.471123 333.577026,85.095497 
	C343.585236,84.975372 353.291748,84.935249 362.996674,85.041527 
	C365.091797,85.064468 367.181183,85.614693 369.555115,86.287292 
	C363.597534,92.781258 357.358002,98.909973 351.118500,105.038681 
z"/>
<path fill="#00C9DF" opacity="1.000000" stroke="none" 
	d="
M157.086151,295.389465 
	C165.834183,295.337921 174.501587,295.675903 183.592667,296.427185 
	C181.621948,305.560486 179.227524,314.280457 176.833115,323.000427 
	C168.114136,322.763153 159.395172,322.525848 150.285278,322.119324 
	C152.264740,313.226410 154.635117,304.502686 157.086151,295.389465 
z"/>
<path fill="#00CFDD" opacity="1.000000" stroke="none" 
	d="
M339.422607,273.905396 
	C327.357880,273.686676 315.595764,273.335815 303.498016,272.665771 
	C309.735565,265.884796 316.308716,259.423004 323.274872,253.125488 
	C325.453186,253.526489 327.236755,253.950989 329.024139,253.967667 
	C336.994354,254.042099 344.966583,253.937012 352.935913,254.050156 
	C354.645752,254.074417 356.346558,254.735962 358.051514,255.103958 
	C351.942749,261.327087 345.833984,267.550201 339.422607,273.905396 
z"/>
<path fill="#00C2E2" opacity="1.000000" stroke="none" 
	d="
M139.096313,361.371155 
	C159.354980,360.999878 179.543518,360.974579 199.731720,361.046265 
	C201.417007,361.052246 203.099945,361.711761 204.890167,362.450531 
	C193.343796,366.221985 181.712189,369.685089 170.029434,372.966125 
	C164.570663,374.499207 159.073593,376.074493 153.486664,376.932922 
	C143.931900,378.401001 137.442841,371.358246 139.096313,361.371155 
z"/>
<path fill="#00DFD7" opacity="1.000000" stroke="none" 
	d="
M293.586060,125.087509 
	C296.647675,125.302963 299.399261,125.873146 302.165894,125.958992 
	C310.933502,126.231026 319.706726,126.322159 328.625397,127.103706 
	C323.194580,133.189285 317.616180,138.654404 312.037750,144.119522 
	C310.337250,143.746353 308.640991,143.075378 306.935486,143.050842 
	C298.968384,142.936234 290.998291,143.042191 283.030243,142.967621 
	C281.243866,142.950882 279.461304,142.525497 277.286316,142.118469 
	C282.358032,136.372650 287.820465,130.796616 293.586060,125.087509 
z"/>
<path fill="#00D0DC" opacity="1.000000" stroke="none" 
	d="
M206.037689,250.119675 
	C204.330978,249.746445 202.631851,249.092865 200.916321,249.046570 
	C191.452454,248.791183 181.984573,248.684036 172.232513,248.211761 
	C174.882584,244.513947 177.758133,241.075607 180.774582,237.765686 
	C182.860779,235.476501 185.141495,233.364563 187.641785,231.034821 
	C189.653275,231.264130 191.354141,231.925598 193.064041,231.949875 
	C201.033432,232.062988 209.005722,231.957886 216.976028,232.032318 
	C218.763443,232.049011 220.547058,232.473495 222.584747,233.181458 
	C217.237289,239.141663 211.637497,244.630676 206.037689,250.119675 
z"/>
<path fill="#00D0DC" opacity="1.000000" stroke="none" 
	d="
M358.358154,254.965561 
	C356.346558,254.735962 354.645752,254.074417 352.935913,254.050156 
	C344.966583,253.937012 336.994354,254.042099 329.024139,253.967667 
	C327.236755,253.950989 325.453186,253.526489 323.415283,252.818359 
	C327.735596,247.884918 332.308533,243.422867 336.881439,238.960815 
	C346.585663,238.973877 356.290497,238.934509 365.993683,239.041534 
	C368.088318,239.064621 370.177124,239.614990 372.691498,239.982666 
	C368.297852,244.970947 363.481323,249.899063 358.358154,254.965561 
z"/>
<path fill="#FFFFFF" opacity="1.000000" stroke="none" 
	d="
M475.097656,100.575310 
	C471.730988,103.923531 468.500397,106.965553 464.647430,110.593658 
	C460.937286,106.735985 457.298828,102.952843 453.220642,98.727020 
	C447.871796,93.488892 442.962708,88.693443 438.053650,83.898010 
	C427.943848,73.674370 417.834076,63.450722 407.421997,53.094582 
	C407.049377,51.840584 406.460541,50.208897 406.986664,49.674225 
	C414.666840,41.868572 421.798492,33.196438 432.954315,30.088125 
	C444.348022,26.913548 454.168213,30.316217 462.588898,38.151886 
	C467.321747,42.555923 471.770538,47.265285 476.654236,51.977859 
	C483.393188,59.212814 487.562653,67.218040 487.097168,77.558975 
	C485.442444,86.630730 481.481750,94.062767 475.097656,100.575310 
z"/>
<path fill="#FFFFFF" opacity="1.000000" stroke="none" 
	d="
M176.892792,323.388000 
	C179.227524,314.280457 181.621948,305.560486 184.068771,296.438354 
	C185.605148,291.225342 187.089127,286.414459 188.799179,280.870667 
	C194.016312,286.231781 199.145706,291.502747 204.577698,296.905579 
	C214.011841,306.282959 223.143402,315.528473 232.577606,324.905701 
	C235.825714,328.692352 231.581299,328.340393 230.437210,328.678741 
	C220.955627,331.483185 211.384262,333.983490 201.844574,336.592316 
	C191.741898,339.355103 181.644165,342.135956 170.830475,345.104919 
	C172.984039,337.601746 174.968246,330.688660 176.892792,323.388000 
z"/>
<path fill="#FFFFFF" opacity="1.000000" stroke="none" 
	d="
M337.021851,238.653717 
	C332.308533,243.422867 327.735596,247.884918 323.022278,252.654083 
	C316.308716,259.423004 309.735565,265.884796 303.022095,272.653748 
	C295.975250,279.756195 289.068756,286.551483 282.021973,293.653961 
	C275.082153,301.238922 268.282532,308.516693 261.266602,316.026001 
	C253.735764,308.404022 247.194305,301.783386 240.345764,295.022217 
	C232.600616,287.330048 225.162537,279.778412 217.422073,272.094482 
	C211.554810,266.858704 205.989960,261.755188 199.366562,255.680878 
	C202.228592,253.466110 204.002701,252.093231 205.907257,250.420013 
	C211.637497,244.630676 217.237289,239.141663 222.977753,233.345627 
	C231.669968,224.600525 240.221512,216.162445 248.905426,207.422028 
	C257.304382,198.963913 265.570953,190.808121 273.978516,182.345367 
	C286.670624,169.600357 299.221802,157.162262 311.905334,144.421844 
	C317.616180,138.654404 323.194580,133.189285 328.905396,127.421852 
	C336.304199,119.963905 343.570587,112.808266 350.977722,105.345657 
	C357.358002,98.909973 363.597534,92.781258 369.977844,86.345581 
	C375.230347,80.443459 380.342072,74.848289 385.778625,68.897568 
	C391.940369,75.200142 397.113342,80.491364 402.729126,86.222702 
	C408.077698,91.457039 412.983521,96.251259 417.889343,101.045486 
	C425.708618,108.975983 433.527924,116.906479 441.654236,124.977570 
	C443.241882,126.599281 444.522461,128.080383 445.985992,129.773071 
	C441.689178,133.986465 437.426117,138.166763 433.022400,142.654053 
	C425.330078,150.399277 417.778412,157.837494 410.094543,165.578171 
	C396.717194,179.012146 383.472015,192.143661 370.094666,205.577591 
	C359.029083,216.702209 348.095673,227.524414 337.021851,238.653717 
z"/>
<path fill="#00E4D5" opacity="1.000000" stroke="none" 
	d="
M418.281189,100.878090 
	C412.983521,96.251259 408.077698,91.457039 403.032837,86.356300 
	C405.319366,85.699852 407.738007,85.112740 410.171631,85.042252 
	C419.272461,84.778664 428.378143,84.684189 437.767822,84.212143 
	C442.962708,88.693443 447.871796,93.488892 452.913879,98.587601 
	C451.343597,99.260574 449.644531,99.925270 447.936310,99.949631 
	C439.968140,100.063240 431.996979,99.957878 424.027863,100.032349 
	C422.240967,100.049042 420.457886,100.473801 418.281189,100.878090 
z"/>
</svg>