<svg version="1.1" id="Layer_1" xmlns="http://www.w3.org/2000/svg" xmlns:xlink="http://www.w3.org/1999/xlink" x="0px" y="0px"
	 width="100pt" height="151pt" border-radius="50%" viewBox="0 0 542 542" enable-background="new 0 0 542 542" xml:space="preserve">
<path fill="#FEFFFF" opacity="1.000000" stroke="none" 
	d="
M1.000000,211.000000 
	C1.000000,142.015778 1.029309,73.531509 0.910829,5.047496 
	C0.905087,1.728627 1.429596,0.897417 4.950880,0.899676 
	C182.909805,1.013842 360.868805,1.016785 538.827759,0.887596 
	C542.644897,0.884825 543.081177,1.928897 543.079468,5.325879 
	C542.989319,183.118210 542.988281,360.910583 543.086060,538.702881 
	C543.088013,542.177612 542.536560,543.109192 538.798950,543.106628 
	C361.006653,542.984314 183.214279,542.983826 5.421999,543.105408 
	C1.498144,543.108093 0.910862,542.030151 0.914342,538.423950 
	C1.019511,429.449371 1.000000,320.474670 1.000000,211.000000 
z"/>
<path fill="#014F7A" opacity="1.000000" stroke="none" 
	d="
M45.661705,236.761078 
	C45.656643,235.728073 45.660042,235.139465 45.801964,234.282135 
	C48.526505,223.769592 50.440693,213.354233 53.818432,203.312424 
	C56.769756,194.538330 60.202435,185.947372 63.718529,176.964996 
	C63.808857,176.576752 63.784309,176.246414 63.899448,176.127350 
	C67.246071,172.374023 68.319267,167.607193 70.689354,163.127686 
	C70.785057,162.784698 70.878151,162.898270 70.809280,162.872803 
	C73.331139,160.096039 74.301247,156.379654 76.505112,153.002991 
	C76.606720,152.668549 76.943375,152.909668 76.764839,152.804825 
	C77.545357,152.704086 77.474159,151.911865 77.756035,150.992828 
	C77.855659,150.670105 77.885719,150.288544 78.030304,150.163147 
	C79.103683,148.904694 80.148170,147.850067 80.786232,146.140594 
	C80.914391,145.545609 81.012474,145.269165 81.430725,144.924561 
	C85.983894,140.481781 88.857132,135.020447 92.698845,130.277374 
	C98.014519,123.714531 103.748161,117.551361 109.497078,110.972740 
	C109.577805,110.629112 109.779160,110.941330 109.697540,110.774467 
	C110.063072,110.750679 110.433846,110.649811 110.657135,109.943626 
	C110.599060,109.623848 110.886833,109.797920 110.757698,109.690201 
	C115.001785,107.311356 117.258942,102.565514 121.513763,99.886475 
	C121.455017,99.548332 121.561401,99.510422 121.589195,99.461273 
	C122.010376,99.748779 122.366653,99.732246 122.623978,98.965813 
	C122.568634,98.631104 122.697639,98.730988 122.664352,98.656509 
	C123.060593,98.749405 123.419647,98.664520 123.668243,97.969048 
	C123.640236,97.653618 124.003548,97.990158 123.820114,97.824402 
	C124.583565,97.651123 124.810539,96.617393 125.710236,96.053993 
	C125.869446,95.792313 125.913269,95.910744 125.860909,95.875458 
	C129.543976,94.863182 131.511902,91.482315 134.436661,89.389809 
	C137.795944,86.986420 141.329575,84.829819 144.704163,81.947723 
	C144.920197,81.308289 145.119385,81.101112 145.642395,80.967804 
	C147.189209,80.307793 148.499146,79.647888 149.789749,78.378929 
	C150.036774,78.183731 150.285950,77.889236 150.478180,77.873184 
	C153.173538,77.074188 155.134186,75.247604 157.580109,73.934326 
	C157.616608,73.584328 157.863159,73.872627 157.758286,73.714584 
	C159.153244,73.264786 160.309174,72.320152 161.779404,71.306999 
	C162.022232,71.102821 162.270508,70.839912 162.451309,70.839424 
	C172.636459,66.535660 182.186600,61.230450 192.430923,57.437424 
	C194.446976,56.690975 196.533112,56.200336 198.758698,55.102753 
	C199.000275,54.813557 199.158310,54.665466 199.264191,54.688164 
	C210.591995,51.543571 221.901169,48.717957 233.648392,46.000801 
	C234.783920,45.741642 235.523636,45.539383 236.649811,45.368652 
	C239.210266,45.426521 241.334595,44.998093 243.762543,44.547455 
	C244.490356,44.289066 244.928467,44.180386 245.706192,44.103577 
	C249.649765,43.856705 253.293015,44.242722 257.306122,43.498764 
	C268.060181,43.761002 278.380432,43.460125 289.144989,43.734161 
	C296.136139,43.736935 302.581268,44.968159 309.540771,45.321041 
	C310.743927,45.429356 311.502197,45.507706 312.606506,45.755234 
	C320.656433,47.102184 328.031952,49.644943 335.583679,51.456467 
	C347.699707,54.362881 359.232269,59.048279 370.514893,64.310509 
	C372.176910,65.085663 373.832306,65.836151 375.957306,66.486298 
	C376.324036,66.619537 376.060425,66.914864 376.176819,66.754761 
	C376.301727,67.504059 377.039978,67.472290 377.957397,67.621086 
	C378.284546,67.610779 378.024597,67.991684 378.156555,67.800644 
	C379.811646,69.107613 381.916687,69.575035 384.026001,70.740356 
	C384.374695,70.828293 384.733490,70.831116 384.854828,70.963287 
	C386.027100,72.190193 387.259705,72.995247 389.031281,73.500710 
	C389.228668,73.700897 389.112030,73.842010 389.173767,73.774719 
	C391.174774,75.350235 393.463654,76.413734 395.987762,77.742737 
	C396.328552,77.845139 396.717926,77.885361 396.846527,78.032898 
	C397.582977,78.617943 398.133759,79.127968 399.011841,79.635498 
	C399.284515,79.702393 399.127197,79.885704 399.180389,79.777267 
	C399.563202,80.930275 400.911499,80.815720 401.987549,81.577118 
	C402.293030,81.672699 402.038849,81.981567 402.156067,81.819565 
	C402.542358,82.955177 403.932281,82.803268 404.956909,83.628204 
	C405.251495,83.751602 405.123138,83.873192 405.157654,83.791809 
	C405.268036,84.180298 405.502960,84.540871 406.264282,84.747025 
	C406.605347,84.720009 406.873016,84.726418 406.938477,84.843216 
	C410.081299,88.405136 414.046600,90.727737 418.051758,93.457687 
	C418.391785,93.485619 418.323242,93.625626 418.389313,93.584282 
	C420.307770,95.761574 422.560730,97.552826 425.074585,99.399406 
	C425.414612,99.370316 425.472687,99.479347 425.528015,99.506775 
	C428.330719,102.793190 431.574402,105.545509 435.009155,108.536919 
	C435.341370,108.631889 435.009491,108.817307 435.175507,108.731247 
	C435.250122,109.083351 435.369995,109.443886 436.045959,109.674965 
	C436.242706,109.757668 436.127960,109.879967 436.183594,109.818398 
	C436.246582,110.074203 436.359283,110.437019 437.043579,110.673172 
	C437.357605,110.636459 437.019287,111.003532 437.186279,110.819450 
	C437.243835,111.071388 437.355042,111.431252 438.034424,111.675224 
	C438.347046,111.647545 438.016907,112.006401 438.179291,111.825462 
	C438.241730,112.074211 438.354553,112.428642 439.022003,112.681442 
	C439.330383,112.666924 439.017822,113.006935 439.170898,112.834824 
	C439.240997,113.082245 439.357269,113.428032 440.004120,113.699692 
	C440.304504,113.710777 440.043793,113.972015 440.163269,113.831390 
	C440.241333,114.099739 440.372192,114.436325 440.993011,114.718086 
	C441.283752,114.746964 441.085419,114.910446 441.165771,114.810135 
	C441.244873,115.118057 441.394653,115.454277 442.014099,115.715164 
	C442.307007,115.724075 442.068420,115.910347 442.171997,115.800003 
	C442.239594,116.100227 442.372864,116.438515 442.993835,116.736572 
	C443.283905,116.780731 443.084229,116.887039 443.167206,116.810181 
	C444.178253,118.548050 445.941193,119.754417 447.128510,121.524506 
	C447.450073,121.434456 447.509827,121.546501 447.560059,121.585327 
	C447.345062,121.883980 447.270111,122.127174 447.385406,122.353783 
	C447.496368,122.571991 447.601868,122.681137 448.036804,122.614258 
	C448.371552,122.547386 448.177765,122.680000 448.289215,122.643074 
	C448.250641,123.080956 448.386902,123.450027 449.148010,123.737541 
	C470.786652,148.265823 485.746796,176.244064 495.034302,207.282700 
	C504.131622,237.685791 506.781158,268.676453 502.930237,300.609924 
	C501.473022,302.158478 500.331573,301.616699 499.255066,300.650208 
	C492.196136,294.312714 485.387024,287.728058 478.841888,280.849945 
	C472.442596,274.125092 465.874207,267.549774 459.152924,261.144592 
	C448.795593,251.274323 438.976837,240.872223 428.938416,230.690186 
	C426.713135,228.433090 424.244019,226.481522 422.057739,224.215759 
	C401.621368,203.036270 380.184113,182.852310 359.750275,161.680237 
	C354.774109,156.524307 349.378082,151.866623 343.830261,146.344330 
	C343.112579,145.760986 342.949493,145.600281 342.587677,145.164154 
	C341.696136,143.287689 340.849731,141.788483 339.327820,140.366821 
	C338.982452,139.981705 338.851776,139.824509 338.544922,139.423523 
	C337.943451,138.547562 337.565826,137.878754 336.765747,137.200165 
	C336.414795,136.913986 336.276611,136.798782 335.949249,136.494598 
	C335.552948,136.026291 335.362946,135.735901 335.065186,135.219086 
	C334.935547,135.006866 334.668365,134.596939 334.525940,134.401764 
	C334.383545,134.206573 334.077271,133.837555 333.749237,133.490448 
	C333.421204,133.143326 333.082520,132.805557 332.739624,132.468704 
	C332.396729,132.131851 332.050354,131.793274 331.700043,131.452393 
	C331.349731,131.111511 330.994751,130.767609 330.634094,130.421356 
	C330.150787,129.958832 330.028168,129.842560 329.533173,129.372314 
	C328.912323,128.774948 328.665680,128.529755 328.226624,128.099060 
	C327.903259,127.790283 327.774048,127.665176 327.446259,127.353409 
	C327.104156,127.048378 326.960602,126.930000 326.310303,126.524628 
	C325.216827,125.999504 324.620514,125.786903 323.699158,125.433121 
	C311.460754,116.638695 298.505737,110.476608 283.696930,108.802742 
	C263.378906,106.506142 244.603363,110.619743 227.804657,122.552559 
	C208.533447,136.241714 197.087616,154.992462 194.633133,178.345535 
	C191.688766,206.359482 201.052368,230.099319 222.620834,248.670654 
	C222.999603,248.996765 223.352264,249.351151 223.935120,249.987610 
	C224.314529,250.450623 224.455688,250.639252 224.980591,251.386322 
	C225.494507,252.119690 225.624725,252.294617 226.197449,252.934540 
	C226.973724,253.670670 227.312897,253.934814 227.924652,254.388000 
	C228.354309,254.738403 228.517426,254.891968 228.902161,255.302124 
	C232.023163,259.344604 236.000870,262.094055 238.971878,265.814697 
	C240.171341,267.316833 241.960129,268.507538 241.222260,271.152191 
	C238.281357,273.556854 234.854050,273.823120 231.712189,274.811798 
	C209.033966,281.948181 189.547287,294.178650 172.937454,311.141907 
	C148.514114,336.084991 133.107941,366.178772 122.482414,399.029419 
	C121.970886,400.610870 121.374054,402.181061 121.808426,404.237274 
	C122.618286,406.732788 124.321609,408.128204 125.840897,409.648468 
	C149.349487,433.172668 172.831955,456.723206 196.422470,480.165009 
	C200.064789,483.784332 203.976242,487.131775 207.352951,491.025055 
	C208.303940,492.121490 209.828583,492.855774 209.149902,494.937286 
	C190.455276,490.742554 173.359344,482.992584 157.209854,473.336700 
	C99.423470,438.785858 62.927250,388.555756 47.581425,322.996765 
	C46.560093,318.633514 45.959732,314.171753 45.228340,309.351898 
	C45.603935,303.745209 43.893570,298.648773 44.362083,292.998169 
	C42.336002,287.459229 43.011791,282.132751 43.049000,276.892242 
	C43.096874,270.149445 42.511936,263.389221 43.469410,256.209351 
	C44.036419,253.121994 44.253799,250.449219 44.530029,247.336731 
	C45.358517,243.713898 44.676338,240.362106 45.661705,236.761078 
z"/>
<path fill="#012C45" opacity="1.000000" stroke="none" 
	d="
M343.670959,145.286865 
	C349.996735,150.304245 355.839172,155.890030 361.492584,161.751465 
	C376.024200,176.817749 391.423553,191.050751 406.054413,205.999802 
	C415.914276,216.074142 425.881104,226.075729 435.845184,236.040771 
	C444.865967,245.062317 453.764038,254.232605 463.057770,263.015778 
	C473.034698,272.444672 482.321991,282.682098 492.046814,292.430115 
	C495.147217,295.537903 498.719940,298.174530 502.427856,301.022095 
	C500.449402,326.644562 492.935486,350.822388 481.830750,373.886963 
	C465.676788,407.438843 442.622345,435.437012 412.631775,458.054871 
	C410.470001,458.941040 408.758392,459.925079 407.239746,461.756592 
	C407.007050,461.993500 406.892303,462.213135 406.768402,462.214600 
	C406.164124,462.159485 405.740570,462.282471 405.283783,462.949432 
	C405.184143,463.283630 405.135620,463.162628 405.193207,463.193176 
	C403.454956,463.992035 401.670135,464.776855 400.217865,466.639709 
	C399.978210,466.859589 399.821075,467.154236 399.654175,467.158142 
	C399.070251,467.174377 398.704834,467.314392 398.210022,467.840515 
	C397.643494,468.415405 397.265930,468.751587 396.629700,469.116455 
	C395.703674,469.358582 394.994110,469.445374 394.272278,470.145752 
	C394.054474,470.783600 393.839783,470.966309 393.303894,471.037018 
	C387.307770,473.460510 382.231049,477.222656 376.388397,480.030884 
	C376.300476,480.380859 375.964508,480.101959 376.138794,480.232727 
	C369.799957,482.296783 364.045044,485.975891 357.623535,488.243774 
	C347.643372,491.768463 337.615082,495.011261 327.331512,497.475677 
	C325.698517,497.867035 324.264679,498.720764 322.318665,499.335327 
	C321.520996,499.628326 321.081024,499.775146 320.291107,499.861389 
	C310.424774,500.754120 300.996033,502.394104 291.063293,503.340240 
	C279.845764,503.573822 269.050903,503.247375 257.821472,503.490662 
	C247.524277,502.491791 237.692383,501.252441 227.449341,499.864258 
	C226.247726,499.737030 225.468124,499.668976 224.370819,499.362305 
	C219.493484,497.432800 214.826096,496.130493 209.696777,495.250305 
	C209.348648,495.262115 209.095825,495.323639 208.989273,495.247955 
	C207.238113,491.491760 204.124390,488.791107 201.391342,486.240326 
	C177.772095,464.195984 155.638504,440.665039 132.620712,418.024048 
	C128.619064,414.087891 124.085861,410.605103 121.048203,405.373474 
	C123.578300,402.765411 126.719406,403.585602 129.624725,403.583954 
	C211.574112,403.537079 293.523529,403.546875 375.472931,403.546356 
	C389.963989,403.546265 404.455078,403.572479 418.946045,403.533966 
	C425.423553,403.516693 425.675293,403.032288 423.694305,397.017456 
	C415.453217,371.995026 404.185883,348.524780 388.069092,327.554993 
	C365.400330,298.060242 336.535156,278.262817 299.585815,271.101166 
	C295.205261,270.252106 290.538025,270.785187 286.185852,268.145966 
	C286.507477,265.189911 288.923431,265.671234 290.643402,265.241364 
	C315.715820,258.975769 334.398193,244.694290 345.437988,221.140961 
	C355.721436,199.201340 355.191803,177.018188 345.936920,154.856216 
	C344.978210,152.560425 343.529663,150.469833 343.034912,147.567474 
	C343.047791,146.621597 343.193512,146.107574 343.670959,145.286865 
z"/>
<path fill="#22303D" opacity="1.000000" stroke="none" 
	d="
M227.366150,499.978210 
	C227.921494,498.820343 229.172958,498.785400 230.233246,499.050720 
	C238.787323,501.191193 247.807907,500.150574 256.660095,502.942566 
	C268.058411,501.955719 279.080963,502.733978 290.530579,502.783844 
	C300.339630,501.070282 309.726532,499.270020 319.646118,499.544617 
	C301.712402,503.992676 283.225372,505.191223 264.584259,504.532562 
	C252.172089,504.093933 239.856583,502.802612 227.366150,499.978210 
z"/>
<path fill="#2E5879" opacity="1.000000" stroke="none" 
	d="
M376.126099,66.350037 
	C372.891510,68.072823 370.721375,65.231941 368.119781,64.084724 
	C354.350189,58.012730 340.158722,53.347809 325.510223,49.828190 
	C321.463623,48.855907 317.039368,48.749229 313.130249,46.196827 
	C328.683655,47.706669 343.584625,52.610107 358.261200,58.224812 
	C364.272217,60.524403 370.046326,63.443352 376.126099,66.350037 
z"/>
<path fill="#2E5879" opacity="1.000000" stroke="none" 
	d="
M63.524246,176.794998 
	C64.685120,183.105530 60.357861,188.160980 58.264469,193.646774 
	C53.540066,206.027206 50.553638,218.735657 47.855911,231.595688 
	C47.700294,232.337509 47.042850,232.974075 46.279724,233.836517 
	C47.467773,219.171799 52.251232,205.178772 57.234951,191.258377 
	C58.969215,186.414307 61.223087,181.756256 63.524246,176.794998 
z"/>
<path fill="#2E5879" opacity="1.000000" stroke="none" 
	d="
M257.472717,44.216652 
	C253.623306,44.959885 250.165710,45.391273 246.340515,44.395603 
	C267.161316,40.931126 288.219299,41.925430 309.617218,45.176102 
	C303.594177,47.317875 297.312836,43.878979 290.480164,44.961773 
	C281.146423,43.900097 272.237518,44.766571 263.348816,44.489719 
	C261.532684,44.433159 259.713562,44.535301 257.472717,44.216652 
z"/>
<path fill="#22303D" opacity="1.000000" stroke="none" 
	d="
M322.349243,499.481842 
	C325.070770,495.217255 330.159668,495.576935 334.467133,494.440094 
	C346.964233,491.141876 359.177979,487.146240 370.862152,481.591888 
	C372.345306,480.886841 373.730865,479.834473 375.923340,480.262695 
	C359.463104,489.562653 341.359009,495.247437 322.349243,499.481842 
z"/>
<path fill="#2E5879" opacity="1.000000" stroke="none" 
	d="
M109.279465,110.763763 
	C110.098854,111.904297 109.564659,112.875084 108.685516,113.753174 
	C99.457817,122.969933 91.402855,133.149002 83.946724,143.825073 
	C83.615311,144.299591 82.890427,144.499313 81.987534,144.819611 
	C89.171120,132.238449 98.844948,121.381958 109.279465,110.763763 
z"/>
<path fill="#2E5879" opacity="1.000000" stroke="none" 
	d="
M198.600830,54.800110 
	C198.075760,57.881382 194.859436,57.378433 192.832458,58.247105 
	C183.871017,62.087563 174.798996,65.634201 166.363998,70.607841 
	C165.593063,71.062416 164.433441,70.857788 163.043213,70.899101 
	C173.762894,63.880272 185.881317,59.110077 198.600830,54.800110 
z"/>
<path fill="#2B5073" opacity="1.000000" stroke="none" 
	d="
M44.070885,254.556152 
	C44.048279,265.736145 43.979488,276.529968 44.025566,287.323334 
	C44.032471,288.941284 44.577408,290.556946 44.922997,292.589203 
	C44.706997,293.168243 44.441448,293.331757 43.743855,293.315979 
	C41.721935,280.369232 42.027725,267.587677 43.167168,254.402710 
	C43.558750,254.059586 43.810383,254.114731 44.070885,254.556152 
z"/>
<path fill="#2E5879" opacity="1.000000" stroke="none" 
	d="
M233.667816,45.871933 
	C228.284409,49.160122 221.736496,50.391064 215.509598,51.550842 
	C210.378662,52.506496 205.591980,55.058720 199.814667,54.805614 
	C210.306671,50.330044 221.684830,47.630226 233.667816,45.871933 
z"/>
<path fill="#2E5879" opacity="1.000000" stroke="none" 
	d="
M144.478668,81.703995 
	C143.092560,86.659264 137.839737,87.750954 134.235077,90.584877 
	C131.861496,92.450958 130.990845,96.932007 126.202774,95.890091 
	C131.334229,90.397987 137.750854,86.118065 144.478668,81.703995 
z"/>
<path fill="#22303D" opacity="1.000000" stroke="none" 
	d="
M376.659790,480.315521 
	C380.592346,475.479980 386.176025,472.784454 392.691772,471.027100 
	C388.255493,475.031342 382.520508,477.436920 376.659790,480.315521 
z"/>
<path fill="#22303D" opacity="1.000000" stroke="none" 
	d="
M209.625702,495.531738 
	C214.693146,494.289429 219.473679,495.827209 224.020462,498.837219 
	C219.120132,498.936981 214.595520,497.011078 209.625702,495.531738 
z"/>
<path fill="#2E5879" opacity="1.000000" stroke="none" 
	d="
M418.222046,93.213142 
	C413.367584,92.682922 409.773804,89.808472 407.031403,85.310547 
	C411.201447,86.907669 414.393463,90.247276 418.222046,93.213142 
z"/>
<path fill="#2E5879" opacity="1.000000" stroke="none" 
	d="
M121.148949,99.666679 
	C119.339729,104.200157 115.766930,107.412186 110.986130,109.683304 
	C113.642395,105.909096 117.229523,102.833389 121.148949,99.666679 
z"/>
<path fill="#2E5879" opacity="1.000000" stroke="none" 
	d="
M70.500504,162.971771 
	C70.164551,167.809982 68.369179,172.291077 64.360657,175.957825 
	C65.433876,171.412491 68.058350,167.398331 70.500504,162.971771 
z"/>
<path fill="#2E5879" opacity="1.000000" stroke="none" 
	d="
M435.217896,108.325699 
	C430.294312,107.884026 428.344299,103.491562 425.512665,99.876984 
	C429.259399,101.795822 431.932281,105.181854 435.217896,108.325699 
z"/>
<path fill="#2E5879" opacity="1.000000" stroke="none" 
	d="
M76.335548,152.855362 
	C75.597694,156.379440 74.773041,160.185333 71.089645,162.772766 
	C71.733566,159.154617 74.238091,156.282532 76.335548,152.855362 
z"/>
<path fill="#0F3764" opacity="1.000000" stroke="none" 
	d="
M43.285927,293.590332 
	C43.588840,293.116364 43.865875,293.096039 44.557732,293.040222 
	C44.187187,298.157410 46.641571,303.148743 45.513809,308.627716 
	C44.615425,303.980011 43.937737,299.011993 43.285927,293.590332 
z"/>
<path fill="#2E5879" opacity="1.000000" stroke="none" 
	d="
M425.261108,99.092514 
	C421.345703,100.034065 420.399475,96.401428 418.414795,93.898132 
	C420.672791,95.300194 422.890198,97.057449 425.261108,99.092514 
z"/>
<path fill="#2E5879" opacity="1.000000" stroke="none" 
	d="
M45.410072,236.647400 
	C46.079872,239.638474 46.430649,242.957794 45.164917,246.614075 
	C44.848259,247.162521 44.692120,247.325851 44.296471,247.249359 
	C43.770870,243.593155 44.757137,240.317535 45.410072,236.647400 
z"/>
<path fill="#22303D" opacity="1.000000" stroke="none" 
	d="
M400.303925,466.799805 
	C399.901794,463.718018 402.004974,463.192169 404.864380,463.166870 
	C403.710419,464.395813 402.170044,465.567902 400.303925,466.799805 
z"/>
<path fill="#2E5879" opacity="1.000000" stroke="none" 
	d="
M157.280029,73.651352 
	C156.622040,76.542252 154.172607,77.445801 151.057312,77.906296 
	C152.761414,76.477547 154.852432,75.097961 157.280029,73.651352 
z"/>
<path fill="#22303D" opacity="1.000000" stroke="none" 
	d="
M407.338745,461.935028 
	C407.385773,459.371887 408.877411,458.035309 411.930695,458.102966 
	C411.229980,459.967163 409.202179,460.613220 407.338745,461.935028 
z"/>
<path fill="#2E5879" opacity="1.000000" stroke="none" 
	d="
M243.657806,44.324730 
	C242.433136,47.224663 239.836288,45.598118 237.339127,45.602623 
	C239.111969,45.017357 241.187668,44.634533 243.657806,44.324730 
z"/>
<path fill="#0A3764" opacity="1.000000" stroke="none" 
	d="
M43.954422,247.387299 
	C44.056969,247.009552 44.530510,246.993439 44.767452,246.996323 
	C44.877201,249.461853 44.750011,251.924500 44.351288,254.664795 
	C43.996094,254.670456 43.859650,254.428162 43.488777,254.110016 
	C43.488708,251.924637 43.670288,249.844849 43.954422,247.387299 
z"/>
<path fill="#2E5879" opacity="1.000000" stroke="none" 
	d="
M396.135681,77.558502 
	C393.033020,78.574760 391.573853,75.768143 389.394623,73.916351 
	C391.549042,74.801498 393.745911,76.036682 396.135681,77.558502 
z"/>
<path fill="#2E5879" opacity="1.000000" stroke="none" 
	d="
M447.328247,121.140877 
	C444.877899,121.335381 443.788879,119.630814 443.194336,117.092361 
	C444.568939,118.104637 445.887695,119.475967 447.328247,121.140877 
z"/>
<path fill="#2E5879" opacity="1.000000" stroke="none" 
	d="
M384.171356,70.542969 
	C381.770630,71.468796 380.149414,69.792152 378.366516,67.961243 
	C380.181702,68.492279 382.074860,69.374954 384.171356,70.542969 
z"/>
<path fill="#2E5879" opacity="1.000000" stroke="none" 
	d="
M389.158630,73.303558 
	C387.417175,74.226768 385.859894,73.977501 385.023682,71.462555 
	C386.308105,71.746078 387.640045,72.396698 389.158630,73.303558 
z"/>
<path fill="#2E5879" opacity="1.000000" stroke="none" 
	d="
M80.662666,146.029877 
	C81.098442,147.652771 80.870407,149.243958 78.525864,149.989258 
	C78.911385,148.756332 79.647881,147.474899 80.662666,146.029877 
z"/>
<path fill="#2E5879" opacity="1.000000" stroke="none" 
	d="
M161.696167,71.118210 
	C161.666443,73.182007 160.085541,73.576698 158.005234,73.662521 
	C158.892303,72.748886 160.131210,71.941238 161.696167,71.118210 
z"/>
<path fill="#2E5879" opacity="1.000000" stroke="none" 
	d="
M149.718399,78.217407 
	C149.821930,80.265907 148.487564,80.975662 146.226624,80.968857 
	C147.042038,80.045357 148.221024,79.148216 149.718399,78.217407 
z"/>
<path fill="#2E5879" opacity="1.000000" stroke="none" 
	d="
M402.139832,81.397476 
	C400.962555,82.030571 399.963562,81.635300 399.289368,80.022079 
	C400.151276,80.153305 401.068939,80.637779 402.139832,81.397476 
z"/>
<path fill="#2E5879" opacity="1.000000" stroke="none" 
	d="
M405.111755,83.471519 
	C403.938293,84.014412 402.945831,83.615974 402.322571,82.006172 
	C403.172852,82.168854 404.072449,82.680145 405.111755,83.471519 
z"/>
<path fill="#2E5879" opacity="1.000000" stroke="none" 
	d="
M399.151123,79.443054 
	C398.333496,79.967567 397.533112,79.851807 397.032227,78.507362 
	C397.655975,78.514862 398.336853,78.849289 399.151123,79.443054 
z"/>
<path fill="#2E5879" opacity="1.000000" stroke="none" 
	d="
M125.571335,95.856972 
	C125.751740,96.761192 125.184898,97.351646 123.963638,97.662415 
	C124.182198,97.079643 124.727707,96.500633 125.571335,95.856972 
z"/>
<path fill="#2E5879" opacity="1.000000" stroke="none" 
	d="
M77.588478,150.834656 
	C77.660004,151.297577 77.464348,151.925064 76.927505,152.626251 
	C76.831306,152.133057 77.076302,151.566116 77.588478,150.834656 
z"/>
<path fill="#2E5879" opacity="1.000000" stroke="none" 
	d="
M378.114258,67.372620 
	C377.601074,67.857903 376.962860,67.869194 376.368713,66.926102 
	C376.843445,66.774590 377.393738,66.954529 378.114258,67.372620 
z"/>
<path fill="#22303D" opacity="1.000000" stroke="none" 
	d="
M394.492859,470.407440 
	C394.327759,469.673218 394.816101,469.216583 396.002350,469.128967 
	C395.853485,469.541321 395.335968,469.937500 394.492859,470.407440 
z"/>
<path fill="#22303D" opacity="1.000000" stroke="none" 
	d="
M405.491028,463.202850 
	C405.447327,462.946716 405.710510,462.609772 406.309082,462.244446 
	C406.362305,462.518036 406.080109,462.820038 405.491028,463.202850 
z"/>
<path fill="#22303D" opacity="1.000000" stroke="none" 
	d="
M398.331726,468.053101 
	C398.303894,467.793640 398.586761,467.508087 399.178436,467.192322 
	C399.205627,467.450378 398.924042,467.738708 398.331726,468.053101 
z"/>
<path fill="#2E5879" opacity="1.000000" stroke="none" 
	d="
M441.211487,114.494232 
	C440.971588,114.580505 440.659393,114.414032 440.315002,113.969170 
	C440.568237,113.874344 440.853760,114.057915 441.211487,114.494232 
z"/>
<path fill="#2E5879" opacity="1.000000" stroke="none" 
	d="
M406.451782,84.454140 
	C406.207642,84.589516 405.809967,84.459023 405.302185,84.019470 
	C405.560852,83.869705 405.929535,84.028992 406.451782,84.454140 
z"/>
<path fill="#2E5879" opacity="1.000000" stroke="none" 
	d="
M123.401489,97.717865 
	C123.492493,97.969772 123.344757,98.285934 122.914047,98.592056 
	C122.676346,98.227707 122.853569,97.961067 123.401489,97.717865 
z"/>
<path fill="#2E5879" opacity="1.000000" stroke="none" 
	d="
M122.352524,98.678207 
	C122.430061,98.929909 122.291489,99.228706 121.884949,99.469818 
	C121.682266,99.101631 121.855400,98.872696 122.352524,98.678207 
z"/>
<path fill="#2E5879" opacity="1.000000" stroke="none" 
	d="
M436.282104,109.389565 
	C436.026123,109.498993 435.694794,109.362610 435.352478,108.935715 
	C435.629944,108.811378 435.918335,108.977562 436.282104,109.389565 
z"/>
<path fill="#2E5879" opacity="1.000000" stroke="none" 
	d="
M110.360306,109.699677 
	C110.467056,109.956528 110.335060,110.289207 109.909485,110.614746 
	C109.784462,110.330238 109.953011,110.052872 110.360306,109.699677 
z"/>
<path fill="#2E5879" opacity="1.000000" stroke="none" 
	d="
M437.284668,110.389786 
	C437.026520,110.497108 436.695465,110.357750 436.359161,109.926468 
	C436.639862,109.804070 436.925781,109.973595 437.284668,110.389786 
z"/>
<path fill="#2E5879" opacity="1.000000" stroke="none" 
	d="
M438.274445,111.401184 
	C438.018707,111.504044 437.690338,111.360535 437.357635,110.926201 
	C437.636139,110.808525 437.918976,110.981674 438.274445,111.401184 
z"/>
<path fill="#2E5879" opacity="1.000000" stroke="none" 
	d="
M439.259277,112.419128 
	C439.008240,112.516960 438.686127,112.366989 438.352844,111.930779 
	C438.623840,111.820129 438.905975,111.995728 439.259277,112.419128 
z"/>
<path fill="#2E5879" opacity="1.000000" stroke="none" 
	d="
M440.235901,113.460007 
	C439.990326,113.549110 439.676147,113.387444 439.342957,112.944244 
	C439.605103,112.844879 439.886200,113.027054 440.235901,113.460007 
z"/>
<path fill="#2E5879" opacity="1.000000" stroke="none" 
	d="
M442.233856,115.466476 
	C441.985504,115.571182 441.663971,115.418289 441.294281,114.987617 
	C441.550964,114.876175 441.855835,115.042526 442.233856,115.466476 
z"/>
<path fill="#2E5879" opacity="1.000000" stroke="none" 
	d="
M443.226379,116.515137 
	C442.964417,116.608421 442.644958,116.436111 442.300537,115.976730 
	C442.573334,115.876282 442.871063,116.062912 443.226379,116.515137 
z"/>
<path fill="#2E5879" opacity="1.000000" stroke="none" 
	d="
M448.324951,122.337662 
	C448.076019,122.415245 447.780487,122.283104 447.547607,121.887550 
	C447.911865,121.687431 448.134552,121.855354 448.324951,122.337662 
z"/>
<path fill="#2E5879" opacity="1.000000" stroke="none" 
	d="
M449.389893,123.499557 
	C449.137451,123.583961 448.788513,123.406143 448.420105,122.917236 
	C448.698242,122.816536 448.995819,123.026932 449.389893,123.499557 
z"/>
<path fill="#01D5D5" opacity="1.000000" stroke="none" 
	d="
M285.241882,267.286865 
	C297.254333,269.412689 308.948730,271.070923 320.144043,275.056763 
	C350.701691,285.936096 374.361328,305.668518 393.052124,331.787445 
	C408.119843,352.843445 418.404449,376.223206 426.585907,400.642151 
	C428.235901,405.566772 425.058105,404.903442 422.194824,404.902893 
	C375.566742,404.894196 328.938690,404.886841 282.310608,404.892151 
	C228.854950,404.898254 175.399292,404.917175 121.478310,404.980865 
	C119.223480,403.668213 120.120422,402.095184 120.625328,400.518585 
	C130.309494,370.279236 143.852982,342.058746 164.857559,317.936493 
	C184.450012,295.435913 208.266830,279.377686 237.488876,271.976410 
	C238.455292,271.731628 239.398926,271.396942 240.714325,270.945496 
	C244.593430,267.703064 249.048294,268.067505 253.227448,267.668701 
	C255.841751,267.419250 258.457184,267.285034 261.457275,266.665039 
	C269.539001,267.255066 277.219910,266.497528 285.241882,267.286865 
z"/>
<path fill="#FDD5B0" opacity="1.000000" stroke="none" 
	d="
M286.057129,267.388428 
	C277.935913,268.702423 270.246948,268.531860 262.075012,267.803345 
	C249.288574,267.159760 238.373489,262.773651 228.332672,255.130737 
	C228.098511,254.828110 228.050385,254.909592 228.097565,254.905975 
	C227.591965,254.586258 226.945557,254.495789 226.360840,253.860199 
	C226.327393,253.544388 226.215134,253.639877 226.286835,253.656860 
	C225.938934,253.740173 225.588837,253.620255 225.217667,253.002701 
	C225.116501,252.719650 225.070419,252.886932 225.157074,252.890915 
	C224.880768,252.785553 224.581253,252.582596 224.199448,252.049042 
	C213.103516,242.565430 204.457413,231.662872 198.725967,218.372910 
	C178.637589,171.792374 209.695068,115.550995 259.806732,107.980530 
	C283.781586,104.358604 305.367767,109.771538 324.775055,124.959152 
	C325.488617,125.523193 326.112701,125.503304 326.611725,126.082031 
	C326.647491,126.360687 326.816467,126.012901 326.746887,126.193192 
	C327.080414,126.269691 327.406219,126.392715 327.709229,126.994370 
	C327.752716,127.278488 327.936188,127.056351 327.829041,127.152649 
	C328.543793,127.476387 328.791107,128.416870 329.686249,128.990601 
	C329.822235,129.259079 329.854675,129.149506 329.799927,129.165833 
	C330.127258,129.247894 330.441467,129.430481 330.748474,130.005356 
	C330.809021,130.280945 330.841888,130.154785 330.779297,130.172928 
	C331.109253,130.234634 331.425507,130.417099 331.736877,130.997192 
	C331.797485,131.275787 331.834900,131.163849 331.778564,131.181519 
	C332.112579,131.239670 332.427063,131.419220 332.731750,131.996796 
	C332.787628,132.274384 332.843506,132.151627 332.783478,132.182373 
	C333.110687,132.244888 333.425751,132.412521 333.710724,132.992538 
	C333.752533,133.269623 333.933136,133.025391 333.828918,133.135895 
	C334.130188,133.265457 334.452271,133.443848 334.698975,134.048920 
	C334.694855,134.339447 334.737427,134.210449 334.678040,134.243439 
	C335.399719,134.326172 335.437531,134.965927 335.784851,135.736481 
	C335.972626,135.963989 335.971344,136.016037 335.996857,136.021240 
	C336.876495,136.904343 337.773895,137.743225 338.489807,139.061157 
	C338.499481,139.367966 338.735901,139.215271 338.638306,139.316650 
	C340.358429,140.761948 341.567413,142.584366 342.637634,144.895325 
	C342.693115,145.231155 342.685913,145.289062 342.681152,145.317841 
	C343.595703,145.391098 343.432098,146.208160 343.733734,147.057983 
	C349.828308,158.984238 353.576874,171.145050 354.168182,184.365067 
	C355.981384,224.902893 326.620911,261.045105 286.057129,267.388428 
z"/>
<path fill="#163249" opacity="1.000000" stroke="none" 
	d="
M228.066406,255.186798 
	C238.430710,260.770416 249.102707,265.819702 261.349609,267.606140 
	C255.019226,268.814697 248.439590,269.802094 241.467712,270.788147 
	C239.317413,266.709717 235.627701,264.297394 232.786041,261.152954 
	C231.143341,259.335175 228.807343,258.100433 228.066406,255.186798 
z"/>
<path fill="#135382" opacity="1.000000" stroke="none" 
	d="
M257.330505,44.307709 
	C267.837494,44.192368 278.637268,43.475140 289.719604,44.670433 
	C279.218719,44.803162 268.407440,45.476833 257.330505,44.307709 
z"/>
<path fill="#27434F" opacity="1.000000" stroke="none" 
	d="
M342.813629,144.863922 
	C341.365417,143.503311 340.037720,141.775482 338.625366,139.732849 
	C341.368103,139.931900 342.802765,141.650558 342.813629,144.863922 
z"/>
<path fill="#27434F" opacity="1.000000" stroke="none" 
	d="
M338.640259,139.023285 
	C337.718414,138.454468 336.937378,137.540970 336.089355,136.326965 
	C337.686890,136.135605 338.787750,136.831070 338.640259,139.023285 
z"/>
<path fill="#27434F" opacity="1.000000" stroke="none" 
	d="
M329.773132,128.937744 
	C329.197784,128.773865 328.573303,128.288635 327.835388,127.526184 
	C328.707733,127.238548 329.314850,127.782593 329.773132,128.937744 
z"/>
<path fill="#27434F" opacity="1.000000" stroke="none" 
	d="
M343.841980,146.974091 
	C343.433136,146.906982 343.068481,146.437012 342.690094,145.656830 
	C342.871613,145.254700 343.066864,145.162781 343.578857,145.010376 
	C343.892456,145.490341 343.889313,146.030792 343.841980,146.974091 
z"/>
<path fill="#27434F" opacity="1.000000" stroke="none" 
	d="
M335.945374,135.653809 
	C335.568207,135.585297 335.163818,135.206619 334.689026,134.552185 
	C335.327026,134.297089 335.748169,134.667419 335.945374,135.653809 
z"/>
<path fill="#27434F" opacity="1.000000" stroke="none" 
	d="
M326.636230,126.062775 
	C326.199280,126.092262 325.751099,125.823845 325.204102,125.309784 
	C325.611847,125.297722 326.118408,125.531288 326.636230,126.062775 
z"/>
<path fill="#163249" opacity="1.000000" stroke="none" 
	d="
M226.335510,253.889938 
	C226.843216,253.816711 227.359055,254.089050 228.009811,254.631866 
	C227.430862,254.986618 226.772781,254.920197 226.335510,253.889938 
z"/>
<path fill="#27434F" opacity="1.000000" stroke="none" 
	d="
M334.681274,134.052780 
	C334.421051,134.140594 334.147247,133.941757 333.799072,133.494659 
	C334.039062,133.419632 334.353363,133.592880 334.681274,134.052780 
z"/>
<path fill="#163249" opacity="1.000000" stroke="none" 
	d="
M224.160385,252.078766 
	C224.392090,251.987015 224.730515,252.161911 225.156342,252.615845 
	C224.918198,252.711731 224.592651,252.528564 224.160385,252.078766 
z"/>
<path fill="#163249" opacity="1.000000" stroke="none" 
	d="
M225.195694,253.014877 
	C225.476456,252.850204 225.836411,252.980759 226.277466,253.392578 
	C225.997330,253.552597 225.636108,253.431351 225.195694,253.014877 
z"/>
<path fill="#27434F" opacity="1.000000" stroke="none" 
	d="
M333.715088,132.989624 
	C333.462799,133.085602 333.173035,132.901581 332.803375,132.465332 
	C333.041504,132.378616 333.359589,132.544113 333.715088,132.989624 
z"/>
<path fill="#27434F" opacity="1.000000" stroke="none" 
	d="
M327.704163,127.003807 
	C327.461212,127.128937 327.169678,126.979393 326.777740,126.601669 
	C327.003418,126.492035 327.329529,126.610580 327.704163,127.003807 
z"/>
<path fill="#27434F" opacity="1.000000" stroke="none" 
	d="
M330.760742,129.995926 
	C330.508575,130.089951 330.208160,129.898941 329.826447,129.445068 
	C330.067596,129.358414 330.390015,129.534668 330.760742,129.995926 
z"/>
<path fill="#27434F" opacity="1.000000" stroke="none" 
	d="
M331.749268,130.989044 
	C331.492462,131.089539 331.187439,130.903275 330.799561,130.454041 
	C331.044800,130.361496 331.372894,130.531906 331.749268,130.989044 
z"/>
<path fill="#27434F" opacity="1.000000" stroke="none" 
	d="
M332.739166,131.991608 
	C332.487610,132.088699 332.187622,131.903030 331.804932,131.458252 
	C332.045074,131.369064 332.367889,131.538956 332.739166,131.991608 
z"/>
<path fill="#133348" opacity="1.000000" stroke="none" 
	d="
M290.682434,502.696167 
	C279.973267,502.995575 268.977356,502.994629 257.519653,502.984589 
	C257.865509,501.862579 259.067596,501.977325 260.212036,502.005402 
	C270.271820,502.252045 280.344727,501.487701 290.682434,502.696167 
z"/>
</svg>